<svg width="600" height="200" viewBox="0 0 600 200" xmlns="http://www.w3.org/2000/svg">
  <rect width="600" height="200" fill="#07111f"/>
  
  <!-- Diamond -->
  <polygon points="112,18 190,96 112,174 34,96" fill="#0d1f38" stroke="#1d4ed8" stroke-width="2"/>
  
  <!-- A left leg -->
  <line x1="68" y1="156" x2="112" y2="36" stroke="#ffffff" stroke-width="9" stroke-linecap="round"/>
  <!-- A right leg -->
  <line x1="156" y1="156" x2="112" y2="36" stroke="#ffffff" stroke-width="9" stroke-linecap="round"/>
  
  <!-- RULER crossbar -->
  <rect x="66" y="98" width="92" height="16" rx="3" fill="#2563eb"/>
  <line x1="75"  y1="98" x2="75"  y2="106" stroke="#07111f" stroke-width="1.5"/>
  <line x1="85"  y1="98" x2="85"  y2="103" stroke="#07111f" stroke-width="1"/>
  <line x1="95"  y1="98" x2="95"  y2="106" stroke="#07111f" stroke-width="1.5"/>
  <line x1="105" y1="98" x2="105" y2="103" stroke="#07111f" stroke-width="1"/>
  <line x1="115" y1="98" x2="115" y2="106" stroke="#07111f" stroke-width="1.5"/>
  <line x1="125" y1="98" x2="125" y2="103" stroke="#07111f" stroke-width="1"/>
  <line x1="135" y1="98" x2="135" y2="106" stroke="#07111f" stroke-width="1.5"/>
  <line x1="145" y1="98" x2="145" y2="103" stroke="#07111f" stroke-width="1"/>
  
  <!-- Company name -->
  <text x="214" y="83" font-family="Arial Black, Arial, sans-serif" font-size="34" font-weight="900" fill="#ffffff" letter-spacing="2">ARCHMATE</text>
  <text x="216" y="114" font-family="Arial, sans-serif" font-size="14" fill="#2563eb" letter-spacing="8" font-weight="700">SOLUTIONS</text>
  <line x1="216" y1="124" x2="578" y2="124" stroke="#1a3565" stroke-width="0.5"/>
</svg>
